# xmcd
#
# Track frame offsets: 
#        150
#        5325
#        20850
#        35605
#        54129
#        69126
#        84123
#        99816
#        115572
#        130817
#        145067
#        161225
#        179378
#        195984
#        215289
#        229032
#        247129
#        264928
#        279336
#        293984
#        311317
#
# Disc length: 4341 seconds
#
# Revision: 0
# Processed by: cddbd v1.5.2PL0 Copyright (c) Steve Scherf et al.
# Submitted via: ExactAudioCopy v0.99pb5
#
DISCID=0f10f315
DTITLE=Various Artist - No Ice Cream For Frieda (The Negundo Album)
DYEAR=2010
DGENRE=Hip-Hop
TTITLE0=Negundo - Intro (feat. DJ Taip)
TTITLE1=Schaufel and Spaten - Ach Nee (feat. Ronaldo)
TTITLE2=Partners in cRhyme - Das Brett (feat. DJ NST)
TTITLE3=Warpath - Leader
TTITLE4=Choleriker - Prince Of Alcoholism
TTITLE5=Häuptling - Echter Mann (feat. DJ Cutaholic)
TTITLE6=Herr von Grau - Endstation
TTITLE7=Zoën - A Cet Instant
TTITLE8=Main Moe - Und Du (feat. DJ Skyline)
TTITLE9=eSkay - WWW
TTITLE10=Lars vom Dorf - Pleite Und Blank
TTITLE11=Avarice - Hear No Evil
TTITLE12=Birte MC - Scheiss auf Hip Hop
TTITLE13=Mo Narch - 14 Jahre (feat. DJ George Tunee)
TTITLE14=Syntax Vernac and Main Moe - Life Is God (feat. DJ NST)
TTITLE15=Tekno - Hausfrauen and Drecksschlampen
TTITLE16=Epic Sonn - I Just Wanna See You Move
TTITLE17=Maxeel - Ying Yang
TTITLE18=Vit-Armin B - Selbstverständlich
TTITLE19=KnowledgeBorn07 and Ras Zackery - Carry These Lost Souls
TTITLE20=Brown Bag Allstars - The City Never Sleeps (Remix)(Bonus)
EXTD=
EXTT0=
EXTT1=
EXTT2=
EXTT3=
EXTT4=
EXTT5=
EXTT6=
EXTT7=
EXTT8=
EXTT9=
EXTT10=
EXTT11=
EXTT12=
EXTT13=
EXTT14=
EXTT15=
EXTT16=
EXTT17=
EXTT18=
EXTT19=
EXTT20=
PLAYORDER=
